<svg width="56" height="56" viewBox="0 0 56 56" fill="none" xmlns="http://www.w3.org/2000/svg">
<g clip-path="url(#clip0_19_756)">
<path d="M11.3481 16.1023C11.3344 16.1344 11.3234 16.1683 11.3141 16.1996C11.1807 16.5568 11.3162 16.9597 11.6402 17.161L12.9779 18.0387C13.2166 18.199 13.5236 18.2211 13.7835 18.0926C14.0409 17.9624 14.2089 17.7064 14.2258 17.4185C14.2401 17.1289 14.0977 16.856 13.8556 16.7009L12.5179 15.8232C12.3296 15.6886 12.0927 15.6452 11.8712 15.698C11.6454 15.7517 11.4549 15.8995 11.3481 16.1023ZM10.1587 22.199C10.0385 22.479 10.0894 22.8002 10.2861 23.0302C10.4855 23.2618 10.7948 23.3601 11.0889 23.2877L12.6676 22.978C13.1089 22.8863 13.3901 22.4578 13.2984 22.0164C13.2068 21.5751 12.7783 21.2939 12.3369 21.3856L10.7654 21.73C10.5499 21.768 10.3636 21.8924 10.241 22.0736C10.2273 22.0945 10.2135 22.1154 10.1998 22.1363C10.1861 22.1572 10.1724 22.1781 10.1587 22.199ZM16.4123 12.6674C16.3338 12.8326 16.317 13.0234 16.3608 13.2017L16.6705 14.7803C16.7622 15.2217 17.1907 15.5028 17.6321 15.4112C18.0734 15.3195 18.3546 14.891 18.2629 14.4497L17.9185 12.8782C17.8581 12.5545 17.6023 12.3007 17.2785 12.2415C16.9565 12.1797 16.6282 12.3269 16.4535 12.6047C16.4397 12.6256 16.426 12.6465 16.4123 12.6674ZM15.4234 18.6864C14.4583 20.1574 14.8726 22.1522 16.3436 23.1173L18.3502 24.4339L9.91608 37.2891C9.25267 38.3002 9.52119 39.6911 10.535 40.3562L26.9227 51.1081C27.9365 51.7732 29.3193 51.4658 29.9827 50.4546L31.8341 47.6327C34.0419 49.0813 37.032 48.4603 38.4805 46.2525C39.9291 44.0446 39.3082 41.0546 37.1003 39.6061L43.2442 30.2417C45.4521 31.6902 48.4421 31.0693 49.8906 28.8614C51.3392 26.6536 50.7183 23.6636 48.5104 22.215L49.4841 20.7309C50.1475 19.7197 49.879 18.3289 48.8652 17.6637L44.183 14.5918C43.4462 14.1084 42.6043 13.9447 41.938 13.8664C41.3022 13.793 40.8542 13.8093 40.8074 13.8123L40.7519 13.8057L27.5005 13.723C27.4598 13.7224 27.4173 13.7244 27.3758 13.7308C26.8934 13.7881 26.4134 13.8133 25.8938 13.9844C25.3741 14.1555 24.8542 14.5208 24.4804 15.0904L21.8611 19.0828L19.8544 17.7662C18.3834 16.8011 16.3869 17.218 15.4234 18.6864ZM16.7612 19.5641C17.2515 18.8168 18.2294 18.6137 18.9767 19.104L20.9834 20.4206L19.2279 23.0961L17.2213 21.7796C16.474 21.2893 16.2709 20.3114 16.7612 19.5641ZM12.9182 26.8799C12.7287 27.2826 12.9013 27.7659 13.304 27.9553C13.7067 28.1448 14.1899 27.9722 14.3794 27.5695L15.2571 26.2317C15.4174 25.9931 15.4394 25.6861 15.3109 25.4261C15.1808 25.1688 14.9247 25.0008 14.6368 24.9839C14.3472 24.9695 14.0744 25.1119 13.9193 25.354L13.0416 26.6918C13.0279 26.7127 13.0142 26.7336 13.0005 26.7545C12.9867 26.7754 12.973 26.7963 12.9593 26.8172C12.9456 26.8381 12.9319 26.859 12.9182 26.8799ZM20.8175 14.84C20.628 15.2427 20.8006 15.7259 21.2033 15.9154C21.606 16.1048 22.0892 15.9322 22.2787 15.5295L23.1564 14.1918C23.3167 13.9531 23.3387 13.6461 23.2103 13.3862C23.0801 13.1288 22.824 12.9608 22.5361 12.9439C22.2466 12.9296 21.9737 13.072 21.8186 13.3141L20.9409 14.6518C20.9272 14.6727 20.9135 14.6936 20.8998 14.7145C20.8861 14.7355 20.8723 14.7564 20.8586 14.7773C20.8449 14.7982 20.8312 14.8191 20.8175 14.84ZM11.2539 38.1668L25.8182 15.9681C26.0154 15.6676 26.1536 15.605 26.4112 15.5199C26.6689 15.4348 27.0638 15.3912 27.5817 15.331L28.1434 15.3408L25.4143 19.5004C25.4006 19.5213 25.3869 19.5422 25.3732 19.5631C25.3594 19.584 25.3457 19.6049 25.332 19.6258C25.183 19.984 25.3143 20.3991 25.6443 20.6082L33.0021 25.4355C33.3705 25.6772 33.8681 25.5739 34.1098 25.2055L40.3223 15.7365C40.3918 15.6364 40.4334 15.5216 40.4516 15.4028L40.7775 15.4073C40.794 15.4106 40.8148 15.4131 40.8331 15.4138C40.8331 15.4138 41.2281 15.3927 41.7625 15.4555C42.2969 15.5183 42.9317 15.6844 43.3053 15.9295L47.9875 19.0015C48.2645 19.1832 48.3383 19.5606 48.1464 19.8532L47.0218 21.5672C45.1028 21.0968 43.0074 21.8525 41.864 23.5952C40.7206 25.338 40.8618 27.561 42.0573 29.134L35.6117 38.9583C33.6927 38.4879 31.5973 39.2435 30.4539 40.9863C29.3105 42.7291 29.4516 44.9521 30.6472 46.5251L28.6449 49.5769C28.4529 49.8695 28.0774 49.952 27.8004 49.7703L11.4127 39.0185C11.1357 38.8368 11.0619 38.4594 11.2539 38.1668ZM27.1909 19.7092L30.0572 15.3406L38.628 15.4023L33.2109 23.6589L27.1909 19.7092ZM20.1905 33.2958L22.8661 35.0512L21.1107 37.7267L22.4485 38.6044L24.2039 35.9289L26.8794 37.6843L27.7571 36.3465L25.0816 34.5911L26.837 31.9156L25.4992 31.0379L23.7438 33.7134L21.0682 31.958L20.1905 33.2958ZM31.7917 41.864C32.7671 40.3773 34.7359 39.9684 36.2226 40.9438C37.7093 41.9193 38.1182 43.8881 37.1428 45.3748C36.1673 46.8615 34.1985 47.2704 32.7118 46.2949C31.2251 45.3195 30.8162 43.3507 31.7917 41.864ZM43.2018 24.4729C44.1772 22.9862 46.146 22.5774 47.6327 23.5528C49.1194 24.5282 49.5283 26.497 48.5529 27.9837C47.5775 29.4704 45.6086 29.8793 44.1219 28.9039C42.6352 27.9285 42.2264 25.9596 43.2018 24.4729Z" fill="#494B4A"/>
</g>
<defs>
<clipPath id="clip0_19_756">
<rect width="40" height="40" fill="white" transform="translate(0 33.4443) rotate(-56.7315)"/>
</clipPath>
</defs>
</svg>
