<svg width="24" height="24" viewBox="0 0 24 24" fill="none" xmlns="http://www.w3.org/2000/svg">
<path d="M20.1868 4.29917L17.4246 4.44172C17.184 4.45413 16.9583 4.56164 16.797 4.74051L15.7059 5.95028C15.1922 5.54265 14.6527 5.19474 14.0982 4.90684L13.8601 3.97035L14.642 2.50031C14.8776 2.05752 14.7096 1.50777 14.2668 1.27214C13.824 1.03653 13.274 1.2049 13.0386 1.64743L12.0919 3.4273C11.9857 3.62671 11.9577 3.85863 12.0134 4.07752L12.0249 4.12259C11.4152 3.97343 10.8043 3.89357 10.2051 3.88207C10.1924 3.87034 10.1806 3.85806 10.1677 3.84644C9.31042 3.07327 7.9453 2.70839 6.59316 2.87812L6.25805 1.55996C6.13455 1.07389 5.64034 0.779982 5.15419 0.903574C4.66812 1.02708 4.37421 1.52128 4.4978 2.00743L4.85841 3.42585C4.41423 3.66473 4.00063 3.97827 3.64271 4.37514C3.28479 4.77201 3.0155 5.21569 2.82361 5.6821L1.3756 5.46941C0.879394 5.39643 0.418157 5.73973 0.345174 6.23594C0.27219 6.73215 0.615413 7.19347 1.1117 7.26637L2.45735 7.46402C2.42779 8.82635 2.93118 10.1467 3.78848 10.9199C3.80137 10.9315 3.8148 10.942 3.82777 10.9534C3.9008 11.5482 4.04321 12.1476 4.25434 12.7388L4.20832 12.732C3.98478 12.6991 3.75706 12.7509 3.56963 12.877L1.89667 14.0019C1.48065 14.2817 1.36995 14.846 1.64989 15.2622C1.92975 15.6784 2.49405 15.7889 2.91016 15.5089L4.29182 14.5799L5.24775 14.7203C5.59111 15.2421 5.99271 15.7429 6.45114 16.2121L5.36019 17.4217C5.19887 17.6006 5.11517 17.8362 5.12767 18.0767L5.27021 20.8389C5.29606 21.3398 5.72301 21.7249 6.22393 21.699C6.4744 21.6861 6.69586 21.5728 6.85145 21.4003C7.00703 21.2278 7.09689 20.9957 7.08397 20.7454L6.96073 18.3589L7.83086 17.394C8.54838 17.9065 9.30789 18.3097 10.0824 18.5991L9.46833 20.2642C9.39135 20.4728 9.39364 20.7025 9.47475 20.9096L10.2722 22.9457C10.455 23.4127 10.9818 23.643 11.4489 23.46C11.5847 23.4069 11.7003 23.3247 11.7918 23.2233C12.0149 22.9759 12.0931 22.6146 11.9633 22.2832L11.2918 20.5687L11.848 19.0604C14.1338 19.4101 16.3624 18.7911 17.8268 17.1673C19.2914 15.5434 19.6776 13.263 19.0944 11.0254L20.5375 10.3169L22.312 10.8083C22.6549 10.9033 23.0063 10.7883 23.2294 10.541C23.3208 10.4396 23.3907 10.3161 23.4297 10.1756C23.5634 9.69234 23.2802 9.19198 22.7969 9.05815L20.6896 8.47446C20.4753 8.4151 20.2467 8.43637 20.0469 8.53451L18.4539 9.31675C18.0863 8.57594 17.6071 7.86196 17.0235 7.20118L17.8936 6.23636L20.2802 6.11328C20.5306 6.10036 20.7521 5.98709 20.9078 5.81449C21.0633 5.64197 21.1532 5.40985 21.1403 5.15956C21.1147 4.65837 20.6877 4.27332 20.1868 4.29917ZM8.95138 5.19515C10.0548 6.19027 8.46696 8.06323 8.13746 8.42858C7.80796 8.79394 6.1084 10.5661 5.00498 9.57102C4.11071 8.76451 3.92889 6.76965 4.9915 5.59139C6.05429 4.41313 8.0571 4.38864 8.95138 5.19515ZM8.13716 15.3153C6.9683 14.2612 6.1797 12.975 5.81155 11.685C6.78324 11.6658 7.83687 11.1902 8.84286 10.2875L15.7911 16.5538C13.7784 17.9546 10.5499 17.4913 8.13716 15.3153ZM17.0074 15.2051L10.0592 8.93879C10.8535 7.84532 11.218 6.74824 11.1371 5.77983C12.4582 6.01323 13.8187 6.66525 14.9876 7.71938C17.4003 9.89532 18.1935 13.059 17.0074 15.2051Z" fill="#3A3C3B"/>
</svg>
