<svg width="40" height="40" viewBox="0 0 40 40" fill="none" xmlns="http://www.w3.org/2000/svg">
<path d="M22.3033 6.69032C17.9997 2.38676 10.9972 2.38676 6.69374 6.69032C2.39017 10.9939 2.39017 17.9963 6.69374 22.2999C8.77843 24.3847 11.5503 25.5328 14.4985 25.5328C17.4468 25.5328 20.2185 24.3847 22.3033 22.2999C26.6069 17.9963 26.6069 10.9939 22.3033 6.69032ZM21.377 21.3735C19.5397 23.2108 17.0969 24.2227 14.4985 24.2227C11.9002 24.2227 9.45739 23.2108 7.62009 21.3735C3.8273 17.5808 3.8273 11.4094 7.62009 7.61667C9.51669 5.72006 12.0072 4.77206 14.4985 4.77206C16.9892 4.77206 19.4808 5.72049 21.377 7.61667C25.1697 11.4094 25.1697 17.5808 21.377 21.3735Z" fill="#494B4A"/>
<path d="M39.0842 34.6583L26.7208 22.295C30.3005 16.6875 29.6444 9.13696 24.7505 4.24305C19.0974 -1.41 9.89939 -1.40991 4.24652 4.24305C1.50809 6.98148 0 10.6223 0 14.495C0 18.3677 1.50809 22.0086 4.24652 24.747C6.98487 27.4854 10.6257 28.9935 14.4985 28.9935C17.3066 28.9935 19.9925 28.1999 22.3011 26.72L34.6617 39.0806C35.2523 39.6712 36.0377 39.9965 36.873 39.9965C37.7082 39.9965 38.4935 39.6712 39.084 39.0806C39.6747 38.49 40 37.7047 40 36.8695C40 36.0342 39.6748 35.249 39.0842 34.6583ZM5.17287 23.8207C2.68191 21.3297 1.31 18.0178 1.31 14.495C1.31 10.9723 2.68191 7.66044 5.17287 5.16939C7.74391 2.59835 11.1212 1.31278 14.4985 1.31278C17.8757 1.31278 21.253 2.59826 23.8241 5.16939C28.9663 10.3116 28.9663 18.6784 23.8241 23.8207C21.3331 26.3117 18.0212 27.6835 14.4985 27.6835C10.9757 27.6835 7.66383 26.3117 5.17287 23.8207ZM38.1576 38.1543C37.8145 38.4975 37.3583 38.6864 36.873 38.6864C36.3876 38.6864 35.9314 38.4974 35.5882 38.1543L23.3863 25.9524C23.8618 25.5821 24.3176 25.18 24.7506 24.747C25.1857 24.312 25.587 23.8557 25.955 23.3819L38.1578 35.5847C38.501 35.9279 38.69 36.3842 38.69 36.8696C38.69 37.355 38.501 37.811 38.1576 38.1543Z" fill="#494B4A"/>
<path d="M22.3654 15.7003L20.9547 14.2896C20.8319 14.1668 20.6653 14.0978 20.4915 14.0978H19.3165C19.2866 13.6257 19.2124 13.1687 19.0987 12.7326L19.4853 12.1527L20.6505 11.8614C21.0014 11.7737 21.2147 11.4181 21.1271 11.0671C21.0393 10.7161 20.6835 10.5029 20.3327 10.5905L18.922 10.9432C18.764 10.9827 18.6262 11.0797 18.5359 11.2153L18.5173 11.2432C18.3027 10.8446 18.0503 10.4788 17.767 10.1523C17.7672 10.1398 17.768 10.1276 17.768 10.115C17.768 9.28235 17.304 8.37487 16.56 7.73261L17.1041 6.91635C17.3048 6.61539 17.2235 6.20869 16.9225 6.008C16.6215 5.8073 16.2148 5.88861 16.0141 6.18965L15.4286 7.068C15.086 6.94548 14.7183 6.87539 14.3328 6.87539C13.9473 6.87539 13.5796 6.94548 13.2371 7.068L12.6515 6.18965C12.4509 5.88861 12.0442 5.80739 11.7432 6.008C11.4421 6.20861 11.3608 6.6153 11.5615 6.91635L12.1057 7.73261C11.3617 8.37487 10.8976 9.28235 10.8976 10.115C10.8976 10.1276 10.8985 10.1398 10.8987 10.1523C10.6153 10.4787 10.3631 10.8445 10.1484 11.2432L10.1298 11.2153C10.0394 11.0796 9.90169 10.9827 9.74361 10.9432L8.33291 10.5905C7.98204 10.5029 7.6263 10.7162 7.53865 11.0671C7.45091 11.4181 7.6643 11.7737 8.01526 11.8614L9.1803 12.1527L9.56691 12.7325C9.45326 13.1685 9.379 13.6256 9.34917 14.0977H8.17422C8.00048 14.0977 7.83387 14.1667 7.71109 14.2896L6.30039 15.7003C6.04456 15.9561 6.04456 16.3708 6.30039 16.6266C6.4283 16.7545 6.59595 16.8184 6.76352 16.8184C6.93109 16.8184 7.09882 16.7544 7.22665 16.6266L8.44543 15.4077H9.38256C9.45465 16.0396 9.60561 16.6412 9.82474 17.1959L8.63622 17.6713C8.48726 17.7309 8.36535 17.843 8.29361 17.9865L7.58822 19.3972C7.42639 19.7208 7.55752 20.1142 7.88117 20.276C7.97517 20.323 8.07509 20.3453 8.17361 20.3453C8.41387 20.3453 8.64517 20.2126 8.75995 19.983L9.35396 18.7951L10.4306 18.3644C11.3474 19.7577 12.7555 20.6524 14.3327 20.6524C15.91 20.6524 17.318 19.7577 18.2349 18.3644L19.3115 18.7951L19.9055 19.983C20.0203 20.2126 20.2516 20.3453 20.4919 20.3453C20.5903 20.3453 20.6902 20.323 20.7843 20.2761C21.1078 20.1143 21.239 19.7209 21.0772 19.3973L20.3719 17.9866C20.3001 17.8431 20.1783 17.731 20.0293 17.6714L18.8407 17.196C19.06 16.6412 19.2109 16.0396 19.2829 15.4078H20.22L21.4388 16.6267C21.5667 16.7546 21.7344 16.8185 21.902 16.8185C22.0696 16.8185 22.2373 16.7545 22.3652 16.6267C22.6213 16.3709 22.6213 15.9562 22.3654 15.7003ZM16.458 10.115C16.458 11.1868 14.6878 11.241 14.3329 11.241C13.978 11.241 12.2078 11.1868 12.2078 10.115C12.2078 9.24643 13.1885 8.18539 14.3329 8.18539C15.4774 8.18548 16.458 9.24643 16.458 10.115ZM10.644 14.5676C10.644 13.4323 10.952 12.3886 11.4651 11.5683C11.9447 12.0795 12.7085 12.4141 13.678 12.5169V19.2656C11.9553 18.8643 10.644 16.9111 10.644 14.5676ZM14.988 19.2656V12.5169C15.9573 12.4141 16.7211 12.0794 17.2007 11.5683C17.7139 12.3886 18.0219 13.4323 18.0219 14.5676C18.0219 16.9111 16.7105 18.8643 14.988 19.2656Z" fill="#494B4A"/>
</svg>
